<svg width="57" height="84" viewBox="0 0 57 84" fill="none" xmlns="http://www.w3.org/2000/svg">
<rect x="-0.25" y="0.25" width="56.5" height="83.5" rx="9.75" transform="matrix(-1 0 0 1 56.5 0)" fill="#F4F4F4" stroke="#F4E3EB" stroke-width="0.5"/>
<rect x="-1" y="1" width="49" height="73.5503" rx="9" transform="matrix(-1 0 0 1 52 3.97632)" fill="#F4F4F4" stroke="#F7B9D7" stroke-width="2"/>
<path d="M25.9249 28.1867C26.4244 25.9751 29.5756 25.9751 30.0751 28.1867L30.1069 28.3275C30.3809 29.5401 31.6807 30.2141 32.8296 29.7391L33.2138 29.5803C34.84 28.908 36.404 30.6603 35.5521 32.2C34.9519 33.2847 35.5607 34.6419 36.7699 34.9151L37.0469 34.9776C39.2022 35.4645 39.2022 38.5355 37.0469 39.0224L36.7834 39.0819C35.5481 39.3609 34.9034 40.7263 35.473 41.8575C36.3171 43.5342 34.5342 45.3171 32.8575 44.473C31.7263 43.9034 30.3609 44.5481 30.0819 45.7834L30.041 45.9642C29.5497 48.1395 26.4503 48.1395 25.959 45.9642L25.9187 45.7858C25.638 44.5435 24.2715 43.8884 23.1273 44.4477L23.0068 44.5066C21.3252 45.3286 19.5755 43.5158 20.4566 41.8643C21.0562 40.7404 20.4216 39.3541 19.179 39.0734L18.8988 39.0101C16.7565 38.5262 16.7565 35.4738 18.8988 34.9899L19.1914 34.9238C20.4071 34.6492 21.0045 33.2715 20.3742 32.1963C19.4864 30.6821 21.0195 28.9023 22.6485 29.5561L23.1585 29.7608C24.3179 30.2262 25.6184 29.5433 25.8937 28.3247L25.9249 28.1867Z" fill="#F7B9D7"/>
<path d="M22.7326 17.7589C22.8094 17.4899 23.1906 17.4899 23.2674 17.7589C23.4567 18.4222 24.1381 18.8156 24.8071 18.6479C25.0785 18.5799 25.2691 18.91 25.0745 19.111C24.5948 19.6066 24.5948 20.3934 25.0745 20.889C25.2691 21.09 25.0785 21.4201 24.8071 21.3521C24.1381 21.1844 23.4567 21.5778 23.2674 22.2411C23.1906 22.5101 22.8094 22.5101 22.7326 22.2411C22.5433 21.5778 21.8619 21.1844 21.1929 21.3521C20.9215 21.4201 20.7309 21.09 20.9255 20.889C21.4052 20.3934 21.4052 19.6066 20.9255 19.111C20.7309 18.91 20.9215 18.5799 21.1929 18.6479C21.8619 18.8156 22.5433 18.4222 22.7326 17.7589Z" stroke="#F7B9D7"/>
<path d="M16.5511 22.573C16.68 22.1214 17.32 22.1214 17.4489 22.573V22.573C17.5181 22.8153 17.767 22.959 18.0113 22.8977V22.8977C18.4669 22.7835 18.7869 23.3378 18.4603 23.6753V23.6753C18.285 23.8563 18.285 24.1437 18.4603 24.3247V24.3247C18.7869 24.6622 18.4669 25.2165 18.0113 25.1023V25.1023C17.767 25.041 17.5181 25.1847 17.4489 25.427V25.427C17.32 25.8786 16.68 25.8786 16.5511 25.427V25.427C16.4819 25.1847 16.233 25.041 15.9887 25.1023V25.1023C15.5331 25.2165 15.2131 24.6622 15.5397 24.3247V24.3247C15.715 24.1437 15.715 23.8563 15.5397 23.6753V23.6753C15.2131 23.3378 15.5331 22.7835 15.9887 22.8977V22.8977C16.233 22.959 16.4819 22.8153 16.5511 22.573V22.573Z" stroke="#F7B9D7"/>
<path d="M35.4449 50.4982C35.5689 50.0664 36.1811 50.0664 36.3051 50.4982V50.4982C36.3715 50.7293 36.6105 50.8661 36.8438 50.808V50.808C37.278 50.6998 37.5873 51.2274 37.2751 51.5479V51.5479C37.1071 51.7205 37.1071 51.9955 37.2751 52.1681V52.1681C37.5873 52.4886 37.278 53.0162 36.8438 52.908V52.908C36.6105 52.8498 36.3715 52.9867 36.3051 53.2178V53.2178C36.1811 53.6496 35.5689 53.6496 35.4449 53.2178V53.2178C35.3785 52.9867 35.1395 52.8498 34.9062 52.908V52.908C34.472 53.0162 34.1627 52.4886 34.4749 52.1681V52.1681C34.6429 51.9955 34.6429 51.7205 34.4749 51.5479V51.5479C34.1627 51.2274 34.472 50.6998 34.9062 50.808V50.808C35.1395 50.8661 35.3785 50.7293 35.4449 50.4982V50.4982Z" stroke="#F7B9D7"/>
<path d="M18.06 59.8048C17.976 59.9888 17.852 60.1408 17.688 60.2608C17.524 60.3808 17.346 60.4408 17.154 60.4408C16.962 60.4408 16.804 60.3848 16.68 60.2728C16.56 60.1608 16.5 59.9948 16.5 59.7748C16.5 59.5548 16.598 59.3868 16.794 59.2708C16.99 59.1508 17.22 59.0908 17.484 59.0908H19.866C19.878 59.1468 19.884 59.2008 19.884 59.2528C19.884 59.3888 19.84 59.5148 19.752 59.6308C19.664 59.7468 19.53 59.8048 19.35 59.8048C19.342 59.8048 19.336 59.8048 19.332 59.8048H18.06ZM17.28 59.8048C17.132 59.8048 17.058 59.8568 17.058 59.9608C17.058 60.0448 17.122 60.0868 17.25 60.0868C17.31 60.0868 17.38 60.0608 17.46 60.0088C17.544 59.9568 17.614 59.8888 17.67 59.8048H17.28ZM18.522 62.5048C18.422 63.2888 18.068 63.6808 17.46 63.6808C17.244 63.6808 17.07 63.6148 16.938 63.4828C16.81 63.3508 16.746 63.1848 16.746 62.9848C16.746 62.5168 17.102 62.1168 17.814 61.7848L18.024 60.1888C18.188 60.0848 18.378 60.0328 18.594 60.0328C18.694 60.0328 18.79 60.0428 18.882 60.0628L18.522 62.5048ZM17.748 62.2948C17.376 62.5108 17.19 62.7188 17.19 62.9188C17.19 63.0628 17.26 63.1348 17.4 63.1348C17.56 63.1348 17.66 62.9808 17.7 62.6728L17.748 62.2948ZM22.2798 59.2288C22.3038 59.1968 22.3798 59.1668 22.5078 59.1388C22.6398 59.1068 22.7638 59.0908 22.8798 59.0908C22.9958 59.0908 23.0918 59.1068 23.1678 59.1388L22.5798 63.6568H21.7638L21.9978 61.6288L21.9198 61.6528C21.5518 61.7608 21.2178 61.8668 20.9178 61.9708L20.8338 62.6308C20.7378 63.3388 20.4058 63.6928 19.8378 63.6928C19.6338 63.6928 19.4758 63.6328 19.3638 63.5128C19.2518 63.3888 19.1958 63.2308 19.1958 63.0388C19.1958 62.6108 19.4978 62.2248 20.1018 61.8808L20.4078 59.2768C20.4838 59.2248 20.5838 59.1808 20.7078 59.1448C20.8318 59.1088 20.9518 59.0908 21.0678 59.0908C21.1838 59.0908 21.2598 59.0928 21.2958 59.0968L20.9838 61.4848C21.2278 61.3968 21.5358 61.3028 21.9078 61.2028L22.0518 61.1668L22.2798 59.2288ZM19.6158 62.9488C19.6158 63.0768 19.6738 63.1408 19.7898 63.1408C19.8538 63.1408 19.8958 63.1228 19.9158 63.0868C19.9358 63.0468 19.9498 63.0148 19.9578 62.9908C19.9698 62.9628 19.9798 62.9268 19.9878 62.8828C19.9958 62.8388 20.0018 62.8008 20.0058 62.7688C20.0098 62.7328 20.0138 62.6868 20.0178 62.6308C20.0218 62.5748 20.0258 62.5308 20.0298 62.4988L20.0418 62.4088C19.7578 62.6048 19.6158 62.7848 19.6158 62.9488ZM24.6774 61.5628C24.4454 61.7268 24.3294 61.9708 24.3294 62.2948C24.3294 62.4988 24.4014 62.6908 24.5454 62.8708C24.6934 63.0508 24.9414 63.1408 25.2894 63.1408C25.6374 63.1408 25.9674 63.0228 26.2794 62.7868C26.5914 62.5508 26.8274 62.2928 26.9874 62.0128L27.1914 62.3788C26.6754 63.2548 25.9574 63.6928 25.0374 63.6928C24.5814 63.6928 24.1954 63.5708 23.8794 63.3268C23.5634 63.0788 23.4054 62.7888 23.4054 62.4568C23.4054 61.8768 23.6634 61.4568 24.1794 61.1968C24.0074 60.9848 23.9214 60.7368 23.9214 60.4528C23.9214 60.0808 24.0814 59.7608 24.4014 59.4928C24.7254 59.2248 25.0994 59.0908 25.5234 59.0908C25.9474 59.0908 26.2734 59.1988 26.5014 59.4148C26.7334 59.6308 26.8494 59.9148 26.8494 60.2668H26.2794C26.2834 60.0508 26.2254 59.8888 26.1054 59.7808C25.9894 59.6688 25.8254 59.6128 25.6134 59.6128C25.4054 59.6128 25.2174 59.6888 25.0494 59.8408C24.8614 60.0048 24.7674 60.1968 24.7674 60.4168C24.7674 60.6368 24.8274 60.8268 24.9474 60.9868C25.3474 60.9388 25.6514 60.9648 25.8594 61.0648C25.9874 61.1248 26.0514 61.2208 26.0514 61.3528C26.0514 61.4808 25.9774 61.5708 25.8294 61.6228C25.6854 61.6748 25.5114 61.7008 25.3074 61.7008C25.1034 61.7008 24.8934 61.6548 24.6774 61.5628ZM29.9885 60.6328C30.1085 60.4528 30.1685 60.2848 30.1685 60.1288C30.1685 59.9728 30.1245 59.8488 30.0365 59.7568C29.9485 59.6648 29.8325 59.6188 29.6885 59.6188C29.5445 59.6188 29.4285 59.6548 29.3405 59.7268C29.2525 59.7948 29.2085 59.9048 29.2085 60.0568C29.2085 60.2048 29.3125 60.4728 29.5205 60.8608C29.7285 61.2488 29.8605 61.4988 29.9165 61.6108C30.0685 61.9148 30.1445 62.2088 30.1445 62.4928C30.1445 62.8488 30.0145 63.1388 29.7545 63.3628C29.4985 63.5828 29.1945 63.6928 28.8425 63.6928C28.4945 63.6928 28.2205 63.5848 28.0205 63.3688C27.8205 63.1488 27.7205 62.8928 27.7205 62.6008C27.7205 62.0608 28.0545 61.6148 28.7225 61.2628C28.4505 60.7268 28.3145 60.3528 28.3145 60.1408C28.3145 59.8448 28.4325 59.5948 28.6685 59.3908C28.9085 59.1828 29.2005 59.0788 29.5445 59.0788C29.8925 59.0788 30.1585 59.1668 30.3425 59.3428C30.5265 59.5188 30.6185 59.7428 30.6185 60.0148C30.6185 60.1948 30.5585 60.4008 30.4385 60.6328H29.9885ZM28.4165 62.9728C28.5245 63.0888 28.6545 63.1468 28.8065 63.1468C28.9625 63.1468 29.0825 63.1028 29.1665 63.0148C29.2545 62.9228 29.2985 62.7888 29.2985 62.6128C29.2985 62.4528 29.2365 62.2568 29.1125 62.0248C29.0965 61.9928 29.0665 61.9348 29.0225 61.8508C28.9785 61.7628 28.9465 61.7008 28.9265 61.6648C28.4785 61.8968 28.2545 62.1888 28.2545 62.5408C28.2545 62.7208 28.3085 62.8648 28.4165 62.9728ZM31.9702 59.8048C31.8862 59.9888 31.7622 60.1408 31.5982 60.2608C31.4342 60.3808 31.2562 60.4408 31.0642 60.4408C30.8722 60.4408 30.7142 60.3848 30.5902 60.2728C30.4702 60.1608 30.4102 59.9948 30.4102 59.7748C30.4102 59.5548 30.5082 59.3868 30.7042 59.2708C30.9002 59.1508 31.1302 59.0908 31.3942 59.0908H33.7762C33.7882 59.1468 33.7942 59.2008 33.7942 59.2528C33.7942 59.3888 33.7502 59.5148 33.6622 59.6308C33.5742 59.7468 33.4402 59.8048 33.2602 59.8048C33.2522 59.8048 33.2462 59.8048 33.2422 59.8048H31.9702ZM31.1902 59.8048C31.0422 59.8048 30.9682 59.8568 30.9682 59.9608C30.9682 60.0448 31.0322 60.0868 31.1602 60.0868C31.2202 60.0868 31.2902 60.0608 31.3702 60.0088C31.4542 59.9568 31.5242 59.8888 31.5802 59.8048H31.1902ZM32.4322 62.5048C32.3322 63.2888 31.9782 63.6808 31.3702 63.6808C31.1542 63.6808 30.9802 63.6148 30.8482 63.4828C30.7202 63.3508 30.6562 63.1848 30.6562 62.9848C30.6562 62.5168 31.0122 62.1168 31.7242 61.7848L31.9342 60.1888C32.0982 60.0848 32.2882 60.0328 32.5042 60.0328C32.6042 60.0328 32.7002 60.0428 32.7922 60.0628L32.4322 62.5048ZM31.6582 62.2948C31.2862 62.5108 31.1002 62.7188 31.1002 62.9188C31.1002 63.0628 31.1702 63.1348 31.3102 63.1348C31.4702 63.1348 31.5702 62.9808 31.6102 62.6728L31.6582 62.2948ZM36.1851 63.6688C35.9611 63.6688 35.7911 63.5968 35.6751 63.4528C35.5631 63.3048 35.4871 63.0308 35.4471 62.6308C35.4231 62.4228 35.3991 62.1528 35.3751 61.8208C35.0951 61.9048 34.8131 61.9928 34.5291 62.0848L34.3251 62.6488C34.2851 62.7568 34.2571 62.8348 34.2411 62.8828C34.2251 62.9268 34.1951 62.9948 34.1511 63.0868C34.1111 63.1788 34.0751 63.2468 34.0431 63.2908C34.0151 63.3308 33.9731 63.3828 33.9171 63.4468C33.8651 63.5108 33.8111 63.5568 33.7551 63.5848C33.6111 63.6568 33.4571 63.6928 33.2931 63.6928C33.1291 63.6928 32.9951 63.6348 32.8911 63.5188C32.7911 63.3988 32.7411 63.2528 32.7411 63.0808C32.7411 63.0328 32.7451 62.9828 32.7531 62.9308C32.8051 62.5468 33.1991 62.1968 33.9351 61.8808C34.1431 61.3488 34.4891 60.4528 34.9731 59.1928C35.1011 59.1208 35.2631 59.0848 35.4591 59.0848C35.5031 59.0848 35.5451 59.0848 35.5851 59.0848C35.6251 59.0848 35.6731 59.0848 35.7291 59.0848C35.7891 59.0848 35.8631 59.0968 35.9511 59.1208C35.9551 59.3088 36.0471 60.4748 36.2271 62.6188C36.2431 62.7988 36.2651 62.9168 36.2931 62.9728C36.3211 63.0248 36.3691 63.0508 36.4371 63.0508C36.5491 63.0508 36.6971 62.9748 36.8811 62.8228C37.0691 62.6708 37.2371 62.4808 37.3851 62.2528L37.5531 62.6608L37.4091 62.8528C36.9891 63.3968 36.5811 63.6688 36.1851 63.6688ZM35.2311 60.1288L34.7091 61.5868C34.9891 61.4908 35.1971 61.4208 35.3331 61.3768L35.2311 60.1288ZM33.7251 62.4028C33.3531 62.5908 33.1671 62.7748 33.1671 62.9548C33.1671 63.0828 33.2151 63.1468 33.3111 63.1468C33.3831 63.1468 33.4411 63.0948 33.4851 62.9908C33.5371 62.8788 33.6171 62.6828 33.7251 62.4028ZM41.3023 62.3668L41.4943 62.6608C41.2983 63.3488 40.8923 63.6928 40.2763 63.6928C40.1363 63.6928 40.0143 63.6668 39.9103 63.6148C39.8103 63.5628 39.7343 63.5008 39.6823 63.4288C39.6303 63.3568 39.5883 63.2648 39.5563 63.1528C39.5123 62.9848 39.4883 62.7628 39.4843 62.4868C39.4843 62.2108 39.4503 62.0208 39.3823 61.9168C39.3183 61.8128 39.1943 61.7548 39.0103 61.7428L39.0763 61.2328C39.0843 61.2328 39.0903 61.2328 39.0943 61.2328C39.3263 61.2328 39.5183 61.1668 39.6703 61.0348C39.8343 60.8868 39.9163 60.6968 39.9163 60.4648C39.9163 60.2328 39.8063 60.0368 39.5863 59.8768C39.3703 59.7168 39.0903 59.6368 38.7463 59.6368C38.3023 59.6368 37.9603 59.7468 37.7203 59.9668C37.5923 60.0868 37.5283 60.2308 37.5283 60.3988C37.5283 60.6108 37.6903 60.7388 38.0143 60.7828L37.9303 61.2328C37.6863 61.2208 37.4703 61.1388 37.2823 60.9868C37.0943 60.8348 37.0003 60.6388 37.0003 60.3988C37.0003 59.9788 37.1763 59.6568 37.5283 59.4328C37.8803 59.2048 38.3263 59.0908 38.8663 59.0908C39.2143 59.0908 39.5203 59.1328 39.7843 59.2168C40.2363 59.3688 40.5363 59.6328 40.6843 60.0088C40.7323 60.1408 40.7563 60.2488 40.7563 60.3328C40.7563 60.4128 40.7563 60.4668 40.7563 60.4948C40.7403 60.7148 40.6583 60.9308 40.5103 61.1428C40.3663 61.3548 40.1483 61.5008 39.8563 61.5808C40.0323 61.6168 40.1523 61.6928 40.2163 61.8088C40.2803 61.9248 40.3143 62.1008 40.3183 62.3368C40.3223 62.7408 40.3403 62.9868 40.3723 63.0748C40.4083 63.1588 40.4803 63.2008 40.5883 63.2008C40.8803 63.2008 41.1183 62.9228 41.3023 62.3668ZM37.6243 63.6928C37.4123 63.6928 37.2423 63.6288 37.1143 63.5008C36.9863 63.3728 36.9223 63.2148 36.9223 63.0268C36.9223 62.5388 37.2803 62.1308 37.9963 61.8028C38.1403 60.6828 38.2143 60.1088 38.2183 60.0808C38.3863 59.9728 38.5763 59.9188 38.7883 59.9188C38.8763 59.9188 38.9763 59.9308 39.0883 59.9548L38.7103 62.5168C38.5903 63.3008 38.2283 63.6928 37.6243 63.6928ZM37.3663 62.9548C37.3663 63.0828 37.4343 63.1468 37.5703 63.1468C37.7303 63.1468 37.8323 63.0028 37.8763 62.7148L37.9303 62.3068C37.5543 62.5268 37.3663 62.7428 37.3663 62.9548Z" fill="#F7B9D7"/>
</svg>
