<svg width="57" height="84" viewBox="0 0 57 84" fill="none" xmlns="http://www.w3.org/2000/svg">
<rect x="-0.25" y="0.25" width="56.5" height="83.5" rx="9.75" transform="matrix(-1 0 0 1 56.5 0)" fill="#F4F4F4" stroke="#F4E3EB" stroke-width="0.5"/>
<rect x="-1" y="1" width="49" height="73.5503" rx="9" transform="matrix(-1 0 0 1 52 3.97632)" fill="#F4F4F4" stroke="#F7B9D7" stroke-width="2"/>
<path fill-rule="evenodd" clip-rule="evenodd" d="M25.2705 23.8232C24.7342 23.1867 23.8987 22.7234 23.1304 23.0436C22.3789 23.3569 22.1237 24.2408 22.1756 25.0534C22.1813 25.1425 22.1842 25.2324 22.1842 25.3229C22.1842 27.6346 20.2991 29.5085 17.9737 29.5085C17.8741 29.5085 17.7752 29.5051 17.6773 29.4983C16.8731 29.4427 15.9994 29.6958 15.6854 30.4382C15.3606 31.2064 15.8254 32.0437 16.4661 32.5776C17.3877 33.3454 17.9737 34.4981 17.9737 35.787C17.9737 37.0758 17.3877 38.2286 16.4661 38.9964C15.8253 39.5302 15.3605 40.3676 15.6854 41.1357C15.9993 41.8782 16.8731 42.1312 17.6772 42.0756C17.7752 42.0688 17.874 42.0654 17.9737 42.0654C20.2991 42.0654 22.1842 43.9393 22.1842 46.251C22.1842 46.3416 22.1813 46.4315 22.1756 46.5206C22.1237 47.3331 22.3789 48.2171 23.1304 48.5304C23.8987 48.8506 24.7342 48.3873 25.2705 47.7508C26.0429 46.834 27.2029 46.251 28.5 46.251C29.7013 46.251 30.7852 46.7512 31.5523 47.5534C32.2304 48.2626 33.2084 48.8232 34.1069 48.4288C34.1272 48.4199 34.1475 48.4109 34.1678 48.4019C34.9591 48.05 35.2368 47.117 35.2368 46.251C35.2368 43.9393 37.1219 42.0654 39.4473 42.0654C40.2248 42.0654 41.0468 41.7799 41.3454 41.0621C41.3588 41.03 41.372 40.9979 41.3851 40.9657C41.7048 40.1803 41.2663 39.334 40.6675 38.7336C39.9133 37.9772 39.4474 36.9362 39.4474 35.787C39.4474 34.6378 39.9133 33.5968 40.6675 32.8404C41.2663 32.2399 41.7048 31.3936 41.385 30.6082C41.3719 30.576 41.3587 30.5438 41.3454 30.5118C41.0468 29.794 40.2248 29.5085 39.4473 29.5085C37.1219 29.5085 35.2368 27.6346 35.2368 25.3229C35.2368 24.4569 34.9591 23.524 34.1678 23.1721C34.1475 23.1631 34.1272 23.1541 34.1069 23.1452C33.2084 22.7509 32.2304 23.3114 31.5523 24.0205C30.7851 24.8228 29.7013 25.323 28.5 25.323C27.2029 25.323 26.0429 24.74 25.2705 23.8232ZM28.7105 44.1582C33.2451 44.1582 36.9211 40.504 36.9211 35.9963C36.9211 31.4885 33.2451 27.8343 28.7105 27.8343C24.176 27.8343 20.5 31.4885 20.5 35.9963C20.5 40.504 24.176 44.1582 28.7105 44.1582Z" fill="#F7B9D7"/>
<ellipse cx="40.2895" cy="24.4858" rx="1.26316" ry="1.25568" fill="#F7B9D7"/>
<ellipse cx="28.5" cy="21.1373" rx="1.26316" ry="1.25568" fill="#F7B9D7"/>
<ellipse cx="40.2895" cy="47.0881" rx="1.26316" ry="1.25568" fill="#F7B9D7"/>
<ellipse cx="17.1316" cy="47.0881" rx="1.26316" ry="1.25568" fill="#F7B9D7"/>
<ellipse cx="17.1316" cy="24.4858" rx="1.26316" ry="1.25568" fill="#F7B9D7"/>
<ellipse cx="13.7632" cy="35.7869" rx="1.26316" ry="1.25568" fill="#F7B9D7"/>
<ellipse cx="43.2369" cy="35.7869" rx="1.26316" ry="1.25568" fill="#F7B9D7"/>
<ellipse cx="28.5" cy="50.4367" rx="1.26316" ry="1.25568" fill="#F7B9D7"/>
<path d="M28.5 28.8284C25.9 28.8284 20.3 31.6119 21.9 38.5704" stroke="#F7B9D7" stroke-linecap="round"/>
<path d="M19.06 60.7989C18.976 60.9829 18.852 61.1349 18.688 61.2549C18.524 61.3749 18.346 61.4349 18.154 61.4349C17.962 61.4349 17.804 61.3789 17.68 61.2669C17.56 61.1549 17.5 60.9889 17.5 60.7689C17.5 60.5489 17.598 60.3809 17.794 60.2649C17.99 60.1449 18.22 60.0849 18.484 60.0849H20.866C20.878 60.1409 20.884 60.1949 20.884 60.2469C20.884 60.3829 20.84 60.5089 20.752 60.6249C20.664 60.7409 20.53 60.7989 20.35 60.7989C20.342 60.7989 20.336 60.7989 20.332 60.7989H19.06ZM18.28 60.7989C18.132 60.7989 18.058 60.8509 18.058 60.9549C18.058 61.0389 18.122 61.0809 18.25 61.0809C18.31 61.0809 18.38 61.0549 18.46 61.0029C18.544 60.9509 18.614 60.8829 18.67 60.7989H18.28ZM19.522 63.4989C19.422 64.2829 19.068 64.6749 18.46 64.6749C18.244 64.6749 18.07 64.6089 17.938 64.4769C17.81 64.3449 17.746 64.1789 17.746 63.9789C17.746 63.5109 18.102 63.1109 18.814 62.7789L19.024 61.1829C19.188 61.0789 19.378 61.0269 19.594 61.0269C19.694 61.0269 19.79 61.0369 19.882 61.0569L19.522 63.4989ZM18.748 63.2889C18.376 63.5049 18.19 63.7129 18.19 63.9129C18.19 64.0569 18.26 64.1289 18.4 64.1289C18.56 64.1289 18.66 63.9749 18.7 63.6669L18.748 63.2889ZM23.2798 60.2229C23.3038 60.1909 23.3798 60.1609 23.5078 60.1329C23.6398 60.1009 23.7638 60.0849 23.8798 60.0849C23.9958 60.0849 24.0918 60.1009 24.1678 60.1329L23.5798 64.6509H22.7638L22.9978 62.6229L22.9198 62.6469C22.5518 62.7549 22.2178 62.8609 21.9178 62.9649L21.8338 63.6249C21.7378 64.3329 21.4058 64.6869 20.8378 64.6869C20.6338 64.6869 20.4758 64.6269 20.3638 64.5069C20.2518 64.3829 20.1958 64.2249 20.1958 64.0329C20.1958 63.6049 20.4978 63.2189 21.1018 62.8749L21.4078 60.2709C21.4838 60.2189 21.5838 60.1749 21.7078 60.1389C21.8318 60.1029 21.9518 60.0849 22.0678 60.0849C22.1838 60.0849 22.2598 60.0869 22.2958 60.0909L21.9838 62.4789C22.2278 62.3909 22.5358 62.2969 22.9078 62.1969L23.0518 62.1609L23.2798 60.2229ZM20.6158 63.9429C20.6158 64.0709 20.6738 64.1349 20.7898 64.1349C20.8538 64.1349 20.8958 64.1169 20.9158 64.0809C20.9358 64.0409 20.9498 64.0089 20.9578 63.9849C20.9698 63.9569 20.9798 63.9209 20.9878 63.8769C20.9958 63.8329 21.0018 63.7949 21.0058 63.7629C21.0098 63.7269 21.0138 63.6809 21.0178 63.6249C21.0218 63.5689 21.0258 63.5249 21.0298 63.4929L21.0418 63.4029C20.7578 63.5989 20.6158 63.7789 20.6158 63.9429ZM25.6774 62.5569C25.4454 62.7209 25.3294 62.9649 25.3294 63.2889C25.3294 63.4929 25.4014 63.6849 25.5454 63.8649C25.6934 64.0449 25.9414 64.1349 26.2894 64.1349C26.6374 64.1349 26.9674 64.0169 27.2794 63.7809C27.5914 63.5449 27.8274 63.2869 27.9874 63.0069L28.1914 63.3729C27.6754 64.2489 26.9574 64.6869 26.0374 64.6869C25.5814 64.6869 25.1954 64.5649 24.8794 64.3209C24.5634 64.0729 24.4054 63.7829 24.4054 63.4509C24.4054 62.8709 24.6634 62.4509 25.1794 62.1909C25.0074 61.9789 24.9214 61.7309 24.9214 61.4469C24.9214 61.0749 25.0814 60.7549 25.4014 60.4869C25.7254 60.2189 26.0994 60.0849 26.5234 60.0849C26.9474 60.0849 27.2734 60.1929 27.5014 60.4089C27.7334 60.6249 27.8494 60.9089 27.8494 61.2609H27.2794C27.2834 61.0449 27.2254 60.8829 27.1054 60.7749C26.9894 60.6629 26.8254 60.6069 26.6134 60.6069C26.4054 60.6069 26.2174 60.6829 26.0494 60.8349C25.8614 60.9989 25.7674 61.1909 25.7674 61.4109C25.7674 61.6309 25.8274 61.8209 25.9474 61.9809C26.3474 61.9329 26.6514 61.9589 26.8594 62.0589C26.9874 62.1189 27.0514 62.2149 27.0514 62.3469C27.0514 62.4749 26.9774 62.5649 26.8294 62.6169C26.6854 62.6689 26.5114 62.6949 26.3074 62.6949C26.1034 62.6949 25.8934 62.6489 25.6774 62.5569ZM30.9885 61.6269C31.1085 61.4469 31.1685 61.2789 31.1685 61.1229C31.1685 60.9669 31.1245 60.8429 31.0365 60.7509C30.9485 60.6589 30.8325 60.6129 30.6885 60.6129C30.5445 60.6129 30.4285 60.6489 30.3405 60.7209C30.2525 60.7889 30.2085 60.8989 30.2085 61.0509C30.2085 61.1989 30.3125 61.4669 30.5205 61.8549C30.7285 62.2429 30.8605 62.4929 30.9165 62.6049C31.0685 62.9089 31.1445 63.2029 31.1445 63.4869C31.1445 63.8429 31.0145 64.1329 30.7545 64.3569C30.4985 64.5769 30.1945 64.6869 29.8425 64.6869C29.4945 64.6869 29.2205 64.5789 29.0205 64.3629C28.8205 64.1429 28.7205 63.8869 28.7205 63.5949C28.7205 63.0549 29.0545 62.6089 29.7225 62.2569C29.4505 61.7209 29.3145 61.3469 29.3145 61.1349C29.3145 60.8389 29.4325 60.5889 29.6685 60.3849C29.9085 60.1769 30.2005 60.0729 30.5445 60.0729C30.8925 60.0729 31.1585 60.1609 31.3425 60.3369C31.5265 60.5129 31.6185 60.7369 31.6185 61.0089C31.6185 61.1889 31.5585 61.3949 31.4385 61.6269H30.9885ZM29.4165 63.9669C29.5245 64.0829 29.6545 64.1409 29.8065 64.1409C29.9625 64.1409 30.0825 64.0969 30.1665 64.0089C30.2545 63.9169 30.2985 63.7829 30.2985 63.6069C30.2985 63.4469 30.2365 63.2509 30.1125 63.0189C30.0965 62.9869 30.0665 62.9289 30.0225 62.8449C29.9785 62.7569 29.9465 62.6949 29.9265 62.6589C29.4785 62.8909 29.2545 63.1829 29.2545 63.5349C29.2545 63.7149 29.3085 63.8589 29.4165 63.9669ZM34.0562 60.2229C34.0802 60.1909 34.1562 60.1609 34.2842 60.1329C34.4162 60.1009 34.5402 60.0849 34.6562 60.0849C34.7722 60.0849 34.8682 60.1009 34.9442 60.1329C34.6522 62.4689 34.5062 63.6769 34.5062 63.7569C34.5062 63.8369 34.5302 63.9089 34.5782 63.9729C34.6302 64.0329 34.7042 64.0629 34.8002 64.0629C35.0642 64.0629 35.3002 63.7009 35.5082 62.9769C35.5082 62.9689 35.5102 62.9589 35.5142 62.9469C35.5182 62.9349 35.5202 62.9269 35.5202 62.9229C35.6962 63.0349 35.8102 63.1049 35.8622 63.1329C35.7302 63.6369 35.5662 64.0229 35.3702 64.2909C35.1742 64.5549 34.9222 64.6869 34.6142 64.6869C34.3062 64.6869 34.0982 64.5409 33.9902 64.2489H33.9722C33.8482 64.4049 33.7102 64.5169 33.5582 64.5849C33.4062 64.6529 33.2162 64.6869 32.9882 64.6869C32.6122 64.6869 32.3222 64.5889 32.1182 64.3929C31.9182 64.1969 31.8182 63.9169 31.8182 63.5529C31.8182 63.4769 31.8242 63.3929 31.8362 63.3009L32.0042 61.8969C31.6082 61.6169 31.4102 61.2869 31.4102 60.9069C31.4102 60.6549 31.4862 60.4549 31.6382 60.3069C31.7902 60.1589 31.9842 60.0849 32.2202 60.0849C32.7122 60.0849 32.9582 60.3449 32.9582 60.8649C32.9582 60.9489 32.9522 61.0429 32.9402 61.1469L32.6342 63.4929C32.6302 63.5209 32.6282 63.5629 32.6282 63.6189C32.6282 63.7749 32.6642 63.9009 32.7362 63.9969C32.8082 64.0929 32.9182 64.1409 33.0662 64.1409C33.4222 64.1409 33.6322 63.8649 33.6962 63.3129L34.0562 60.2229ZM31.9982 60.6369C31.8622 60.6369 31.7942 60.7209 31.7942 60.8889C31.7942 61.0529 31.8862 61.2149 32.0702 61.3749L32.0882 61.2189C32.1122 61.0109 32.1262 60.8809 32.1302 60.8289C32.1302 60.7009 32.0862 60.6369 31.9982 60.6369ZM38.5715 60.9549C38.6155 60.6469 38.7035 60.4249 38.8355 60.2889C38.9675 60.1529 39.1415 60.0849 39.3575 60.0849C39.5735 60.0849 39.7315 60.1489 39.8315 60.2769C39.9355 60.4009 39.9875 60.5269 39.9875 60.6549C39.9875 60.6949 39.9835 60.7349 39.9755 60.7749C39.8875 61.2189 39.5935 61.5649 39.0935 61.8129L38.6735 64.6509H37.6655L36.9515 61.4889L36.6215 63.8289C36.5775 64.1249 36.4855 64.3429 36.3455 64.4829C36.2095 64.6229 36.0495 64.6929 35.8655 64.6929C35.6815 64.6929 35.5275 64.6389 35.4035 64.5309C35.2835 64.4229 35.2095 64.2689 35.1815 64.0689C35.1775 64.0369 35.1755 64.0049 35.1755 63.9729C35.1755 63.5769 35.4735 63.2369 36.0695 62.9529L36.3275 61.0209C36.4275 60.9769 36.5135 60.9549 36.5855 60.9549C36.6615 60.9549 36.7255 60.9609 36.7775 60.9729C36.6855 60.8289 36.5395 60.7569 36.3395 60.7569C36.1395 60.7569 35.9635 60.8609 35.8115 61.0689L35.6975 60.5529C35.7735 60.4489 35.9055 60.3449 36.0935 60.2409C36.2855 60.1329 36.4955 60.0789 36.7235 60.0789C36.9555 60.0789 37.1515 60.1489 37.3115 60.2889C37.4715 60.4249 37.5875 60.6549 37.6595 60.9789L38.2235 63.3549L38.5715 60.9549ZM39.1715 61.2969C39.4195 61.1209 39.5435 60.9569 39.5435 60.8049C39.5435 60.7769 39.5335 60.7449 39.5135 60.7089C39.4935 60.6729 39.4635 60.6549 39.4235 60.6549C39.3475 60.6549 39.2955 60.6969 39.2675 60.7809C39.2275 60.8969 39.1955 61.0689 39.1715 61.2969ZM36.0095 63.4509C35.7335 63.6069 35.5955 63.7589 35.5955 63.9069C35.5955 64.0549 35.6495 64.1289 35.7575 64.1289C35.8295 64.1289 35.8815 64.0829 35.9135 63.9909C35.9455 63.8949 35.9755 63.7249 36.0035 63.4809L36.0095 63.4509Z" fill="#F7B9D7"/>
</svg>
