<svg width="57" height="84" viewBox="0 0 57 84" fill="none" xmlns="http://www.w3.org/2000/svg">
<rect x="-0.25" y="0.25" width="56.5" height="83.5" rx="9.75" transform="matrix(-1 0 0 1 56.5 0)" fill="#F4F4F4" stroke="#F4E3EB" stroke-width="0.5"/>
<rect x="-1" y="1" width="49" height="73.5503" rx="9" transform="matrix(-1 0 0 1 52 3.97632)" fill="#F4F4F4" stroke="#F7B9D7" stroke-width="2"/>
<path fill-rule="evenodd" clip-rule="evenodd" d="M43.5 35.29C43.5 43.5252 36.7843 50.2012 28.5 50.2012C20.2157 50.2012 13.5 43.5252 13.5 35.29C13.5 27.0547 20.2157 20.3787 28.5 20.3787C36.7843 20.3787 43.5 27.0547 43.5 35.29ZM30 38.4586C30 40.2086 28.5729 41.6272 26.8125 41.6272C25.0521 41.6272 23.625 40.2086 23.625 38.4586C23.625 36.7086 25.0521 35.2899 26.8125 35.2899C28.5729 35.2899 30 36.7086 30 38.4586ZM32.625 44.2367C33.8676 44.2367 34.875 43.2353 34.875 42C34.875 40.7647 33.8676 39.7633 32.625 39.7633C31.3824 39.7633 30.375 40.7647 30.375 42C30.375 43.2353 31.3824 44.2367 32.625 44.2367ZM32.25 34.1716C32.25 34.9951 31.5784 35.6627 30.75 35.6627C29.9216 35.6627 29.25 34.9951 29.25 34.1716C29.25 33.3481 29.9216 32.6805 30.75 32.6805C31.5784 32.6805 32.25 33.3481 32.25 34.1716ZM22.5 29.6982C23.9497 29.6982 25.125 28.5299 25.125 27.0888C25.125 25.6476 23.9497 24.4793 22.5 24.4793C21.0503 24.4793 19.875 25.6476 19.875 27.0888C19.875 28.5299 21.0503 29.6982 22.5 29.6982ZM19.125 37.3402C19.125 38.2667 18.3695 39.0178 17.4375 39.0178C16.5055 39.0178 15.75 38.2667 15.75 37.3402C15.75 36.4138 16.5055 35.6627 17.4375 35.6627C18.3695 35.6627 19.125 36.4138 19.125 37.3402ZM35.8125 29.3254C36.7445 29.3254 37.5 28.5744 37.5 27.6479C37.5 26.7215 36.7445 25.9704 35.8125 25.9704C34.8805 25.9704 34.125 26.7215 34.125 27.6479C34.125 28.5744 34.8805 29.3254 35.8125 29.3254ZM40.125 30.071C40.125 30.6886 39.6213 31.1893 39 31.1893C38.3787 31.1893 37.875 30.6886 37.875 30.071C37.875 29.4534 38.3787 28.9527 39 28.9527C39.6213 28.9527 40.125 29.4534 40.125 30.071ZM25.875 47.9645C26.4963 47.9645 27 47.4638 27 46.8462C27 46.2285 26.4963 45.7278 25.875 45.7278C25.2537 45.7278 24.75 46.2285 24.75 46.8462C24.75 47.4638 25.2537 47.9645 25.875 47.9645Z" fill="#F7B9D7"/>
<path d="M14.56 60.148C14.476 60.332 14.352 60.484 14.188 60.604C14.024 60.724 13.846 60.784 13.654 60.784C13.462 60.784 13.304 60.728 13.18 60.616C13.06 60.504 13 60.338 13 60.118C13 59.898 13.098 59.73 13.294 59.614C13.49 59.494 13.72 59.434 13.984 59.434H16.366C16.378 59.49 16.384 59.544 16.384 59.596C16.384 59.732 16.34 59.858 16.252 59.974C16.164 60.09 16.03 60.148 15.85 60.148C15.842 60.148 15.836 60.148 15.832 60.148H14.56ZM13.78 60.148C13.632 60.148 13.558 60.2 13.558 60.304C13.558 60.388 13.622 60.43 13.75 60.43C13.81 60.43 13.88 60.404 13.96 60.352C14.044 60.3 14.114 60.232 14.17 60.148H13.78ZM15.022 62.848C14.922 63.632 14.568 64.024 13.96 64.024C13.744 64.024 13.57 63.958 13.438 63.826C13.31 63.694 13.246 63.528 13.246 63.328C13.246 62.86 13.602 62.46 14.314 62.128L14.524 60.532C14.688 60.428 14.878 60.376 15.094 60.376C15.194 60.376 15.29 60.386 15.382 60.406L15.022 62.848ZM14.248 62.638C13.876 62.854 13.69 63.062 13.69 63.262C13.69 63.406 13.76 63.478 13.9 63.478C14.06 63.478 14.16 63.324 14.2 63.016L14.248 62.638ZM18.7798 59.572C18.8038 59.54 18.8798 59.51 19.0078 59.482C19.1398 59.45 19.2638 59.434 19.3798 59.434C19.4958 59.434 19.5918 59.45 19.6678 59.482L19.0798 64H18.2638L18.4978 61.972L18.4198 61.996C18.0518 62.104 17.7178 62.21 17.4178 62.314L17.3338 62.974C17.2378 63.682 16.9058 64.036 16.3378 64.036C16.1338 64.036 15.9758 63.976 15.8638 63.856C15.7518 63.732 15.6958 63.574 15.6958 63.382C15.6958 62.954 15.9978 62.568 16.6018 62.224L16.9078 59.62C16.9838 59.568 17.0838 59.524 17.2078 59.488C17.3318 59.452 17.4518 59.434 17.5678 59.434C17.6838 59.434 17.7598 59.436 17.7958 59.44L17.4838 61.828C17.7278 61.74 18.0358 61.646 18.4078 61.546L18.5518 61.51L18.7798 59.572ZM16.1158 63.292C16.1158 63.42 16.1738 63.484 16.2898 63.484C16.3538 63.484 16.3958 63.466 16.4158 63.43C16.4358 63.39 16.4498 63.358 16.4578 63.334C16.4698 63.306 16.4798 63.27 16.4878 63.226C16.4958 63.182 16.5018 63.144 16.5058 63.112C16.5098 63.076 16.5138 63.03 16.5178 62.974C16.5218 62.918 16.5258 62.874 16.5298 62.842L16.5418 62.752C16.2578 62.948 16.1158 63.128 16.1158 63.292ZM21.1774 61.906C20.9454 62.07 20.8294 62.314 20.8294 62.638C20.8294 62.842 20.9014 63.034 21.0454 63.214C21.1934 63.394 21.4414 63.484 21.7894 63.484C22.1374 63.484 22.4674 63.366 22.7794 63.13C23.0914 62.894 23.3274 62.636 23.4874 62.356L23.6914 62.722C23.1754 63.598 22.4574 64.036 21.5374 64.036C21.0814 64.036 20.6954 63.914 20.3794 63.67C20.0634 63.422 19.9054 63.132 19.9054 62.8C19.9054 62.22 20.1634 61.8 20.6794 61.54C20.5074 61.328 20.4214 61.08 20.4214 60.796C20.4214 60.424 20.5814 60.104 20.9014 59.836C21.2254 59.568 21.5994 59.434 22.0234 59.434C22.4474 59.434 22.7734 59.542 23.0014 59.758C23.2334 59.974 23.3494 60.258 23.3494 60.61H22.7794C22.7834 60.394 22.7254 60.232 22.6054 60.124C22.4894 60.012 22.3254 59.956 22.1134 59.956C21.9054 59.956 21.7174 60.032 21.5494 60.184C21.3614 60.348 21.2674 60.54 21.2674 60.76C21.2674 60.98 21.3274 61.17 21.4474 61.33C21.8474 61.282 22.1514 61.308 22.3594 61.408C22.4874 61.468 22.5514 61.564 22.5514 61.696C22.5514 61.824 22.4774 61.914 22.3294 61.966C22.1854 62.018 22.0114 62.044 21.8074 62.044C21.6034 62.044 21.3934 61.998 21.1774 61.906ZM27.9405 59.476C28.0245 59.444 28.1425 59.428 28.2945 59.428C28.4465 59.428 28.5825 59.438 28.7025 59.458C28.5785 60.378 28.4805 61.212 28.4085 61.96C28.3405 62.704 28.3025 63.096 28.2945 63.136C28.2905 63.176 28.2885 63.212 28.2885 63.244C28.2925 63.348 28.3425 63.4 28.4385 63.4C28.6785 63.4 29.0125 63.124 29.4405 62.572C29.5165 62.784 29.5605 62.926 29.5725 62.998C29.3805 63.302 29.1485 63.552 28.8765 63.748C28.6085 63.94 28.3545 64.036 28.1145 64.036C27.8745 64.036 27.7085 63.974 27.6165 63.85C27.5245 63.726 27.4785 63.588 27.4785 63.436C27.4785 63.4 27.4825 63.33 27.4905 63.226C27.5025 63.122 27.5825 62.474 27.7305 61.282L26.7465 63.556H26.2365L25.9425 61.318L25.5225 63.178C25.4545 63.474 25.3425 63.692 25.1865 63.832C25.0345 63.972 24.8665 64.042 24.6825 64.042C24.4985 64.042 24.3485 63.988 24.2325 63.88C24.1085 63.764 24.0465 63.6 24.0465 63.388C24.0465 62.964 24.3745 62.602 25.0305 62.302C25.3865 60.594 25.5785 59.648 25.6065 59.464C25.7025 59.44 25.8305 59.428 25.9905 59.428C26.1545 59.428 26.2665 59.432 26.3265 59.44H26.3685L26.7405 62.23L27.9405 59.506V59.476ZM24.4725 63.286C24.4725 63.414 24.5225 63.478 24.6225 63.478C24.6905 63.478 24.7465 63.424 24.7905 63.316C24.8465 63.184 24.8925 63.01 24.9285 62.794C24.6245 62.966 24.4725 63.13 24.4725 63.286ZM34.3879 61.588C34.2959 61.688 34.1439 61.778 33.9319 61.858C33.7199 61.934 33.5499 61.972 33.4219 61.972C33.2979 61.972 33.2059 61.968 33.1459 61.96C33.0459 62.552 32.7899 63.046 32.3779 63.442C31.9699 63.838 31.4939 64.036 30.9499 64.036C30.4099 64.036 30.0019 63.868 29.7259 63.532C29.4539 63.196 29.3179 62.758 29.3179 62.218C29.3179 61.866 29.3719 61.524 29.4799 61.192C29.5879 60.856 29.7359 60.558 29.9239 60.298C30.1159 60.038 30.3559 59.83 30.6439 59.674C30.9319 59.514 31.2319 59.434 31.5439 59.434C31.8599 59.434 32.1179 59.506 32.3179 59.65C32.5219 59.79 32.6239 59.986 32.6239 60.238C32.6239 60.43 32.5559 60.602 32.4199 60.754C32.2879 60.902 32.1039 60.976 31.8679 60.976C31.7439 60.976 31.6339 60.946 31.5379 60.886C31.4419 60.822 31.3939 60.722 31.3939 60.586C31.3939 60.522 31.4099 60.466 31.4419 60.418C31.4739 60.37 31.5059 60.34 31.5379 60.328L31.5919 60.304C31.5919 60.464 31.6559 60.544 31.7839 60.544C31.8439 60.544 31.8959 60.524 31.9399 60.484C31.9839 60.44 32.0079 60.392 32.0119 60.34C32.0159 60.288 32.0139 60.248 32.0059 60.22C31.9979 60.188 31.9819 60.152 31.9579 60.112C31.9019 60.012 31.7839 59.962 31.6039 59.962C31.3679 59.962 31.1439 60.074 30.9319 60.298C30.7199 60.522 30.5499 60.81 30.4219 61.162C30.2979 61.514 30.2359 61.874 30.2359 62.242C30.2359 62.55 30.2859 62.824 30.3859 63.064C30.4419 63.192 30.5239 63.294 30.6319 63.37C30.7399 63.442 30.8699 63.478 31.0219 63.478C31.2739 63.478 31.4979 63.372 31.6939 63.16C31.8939 62.948 32.0399 62.692 32.1319 62.392C32.2279 62.092 32.2759 61.788 32.2759 61.48V61.408C32.2639 61.364 32.2579 61.322 32.2579 61.282C32.2579 61.09 32.3259 60.944 32.4619 60.844C32.5499 60.78 32.6599 60.748 32.7919 60.748C32.8279 60.748 32.8859 60.754 32.9659 60.766C33.0459 60.778 33.1019 60.796 33.1339 60.82C33.0499 60.824 32.9839 60.852 32.9359 60.904C32.8919 60.956 32.8699 61.026 32.8699 61.114C32.8699 61.202 32.9099 61.284 32.9899 61.36C33.1019 61.468 33.2759 61.522 33.5119 61.522C33.7519 61.522 33.9999 61.424 34.2559 61.228L34.3879 61.588ZM38.8703 61.588C38.7783 61.688 38.6263 61.778 38.4143 61.858C38.2023 61.934 38.0323 61.972 37.9043 61.972C37.7803 61.972 37.6883 61.968 37.6283 61.96C37.5283 62.552 37.2723 63.046 36.8603 63.442C36.4523 63.838 35.9763 64.036 35.4323 64.036C34.8923 64.036 34.4843 63.868 34.2083 63.532C33.9363 63.196 33.8003 62.758 33.8003 62.218C33.8003 61.866 33.8543 61.524 33.9623 61.192C34.0703 60.856 34.2183 60.558 34.4063 60.298C34.5983 60.038 34.8383 59.83 35.1263 59.674C35.4143 59.514 35.7143 59.434 36.0263 59.434C36.3423 59.434 36.6003 59.506 36.8003 59.65C37.0043 59.79 37.1063 59.986 37.1063 60.238C37.1063 60.43 37.0383 60.602 36.9023 60.754C36.7703 60.902 36.5863 60.976 36.3503 60.976C36.2263 60.976 36.1163 60.946 36.0203 60.886C35.9243 60.822 35.8763 60.722 35.8763 60.586C35.8763 60.522 35.8923 60.466 35.9243 60.418C35.9563 60.37 35.9883 60.34 36.0203 60.328L36.0743 60.304C36.0743 60.464 36.1383 60.544 36.2663 60.544C36.3263 60.544 36.3783 60.524 36.4223 60.484C36.4663 60.44 36.4903 60.392 36.4943 60.34C36.4983 60.288 36.4963 60.248 36.4883 60.22C36.4803 60.188 36.4643 60.152 36.4403 60.112C36.3843 60.012 36.2663 59.962 36.0863 59.962C35.8503 59.962 35.6263 60.074 35.4143 60.298C35.2023 60.522 35.0323 60.81 34.9043 61.162C34.7803 61.514 34.7183 61.874 34.7183 62.242C34.7183 62.55 34.7683 62.824 34.8683 63.064C34.9243 63.192 35.0063 63.294 35.1143 63.37C35.2223 63.442 35.3523 63.478 35.5043 63.478C35.7563 63.478 35.9803 63.372 36.1763 63.16C36.3763 62.948 36.5223 62.692 36.6143 62.392C36.7103 62.092 36.7583 61.788 36.7583 61.48V61.408C36.7463 61.364 36.7403 61.322 36.7403 61.282C36.7403 61.09 36.8083 60.944 36.9443 60.844C37.0323 60.78 37.1423 60.748 37.2743 60.748C37.3103 60.748 37.3683 60.754 37.4483 60.766C37.5283 60.778 37.5843 60.796 37.6163 60.82C37.5323 60.824 37.4663 60.852 37.4183 60.904C37.3743 60.956 37.3523 61.026 37.3523 61.114C37.3523 61.202 37.3923 61.284 37.4723 61.36C37.5843 61.468 37.7583 61.522 37.9943 61.522C38.2343 61.522 38.4823 61.424 38.7383 61.228L38.8703 61.588ZM41.3547 60.304C41.3987 59.996 41.4867 59.774 41.6187 59.638C41.7507 59.502 41.9247 59.434 42.1407 59.434C42.3567 59.434 42.5147 59.498 42.6147 59.626C42.7187 59.75 42.7707 59.876 42.7707 60.004C42.7707 60.044 42.7667 60.084 42.7587 60.124C42.6707 60.568 42.3767 60.914 41.8767 61.162L41.4567 64H40.4487L39.7347 60.838L39.4047 63.178C39.3607 63.474 39.2687 63.692 39.1287 63.832C38.9927 63.972 38.8327 64.042 38.6487 64.042C38.4647 64.042 38.3107 63.988 38.1867 63.88C38.0667 63.772 37.9927 63.618 37.9647 63.418C37.9607 63.386 37.9587 63.354 37.9587 63.322C37.9587 62.926 38.2567 62.586 38.8527 62.302L39.1107 60.37C39.2107 60.326 39.2967 60.304 39.3687 60.304C39.4447 60.304 39.5087 60.31 39.5607 60.322C39.4687 60.178 39.3227 60.106 39.1227 60.106C38.9227 60.106 38.7467 60.21 38.5947 60.418L38.4807 59.902C38.5567 59.798 38.6887 59.694 38.8767 59.59C39.0687 59.482 39.2787 59.428 39.5067 59.428C39.7387 59.428 39.9347 59.498 40.0947 59.638C40.2547 59.774 40.3707 60.004 40.4427 60.328L41.0067 62.704L41.3547 60.304ZM41.9547 60.646C42.2027 60.47 42.3267 60.306 42.3267 60.154C42.3267 60.126 42.3167 60.094 42.2967 60.058C42.2767 60.022 42.2467 60.004 42.2067 60.004C42.1307 60.004 42.0787 60.046 42.0507 60.13C42.0107 60.246 41.9787 60.418 41.9547 60.646ZM38.7927 62.8C38.5167 62.956 38.3787 63.108 38.3787 63.256C38.3787 63.404 38.4327 63.478 38.5407 63.478C38.6127 63.478 38.6647 63.432 38.6967 63.34C38.7287 63.244 38.7587 63.074 38.7867 62.83L38.7927 62.8Z" fill="#F7B9D7"/>
</svg>
