<svg class="max-w-full max-h-full" width="100" height="100" viewBox="0 0 100 100" fill="none" xmlns="http://www.w3.org/2000/svg">
<path d="M90.625 37.5H85.3125C85 36.25 84.375 35 83.75 34.0625L87.5 30C88.75 28.75 89.375 27.1875 89.375 25.625C89.375 24.0625 88.75 22.5 87.5 21.25L78.75 12.5C76.25 10 72.1875 10 70 12.5L66.25 16.25C65 15.625 63.75 15 62.5 14.6875V9.375C62.5 5.9375 59.6875 3.125 56.25 3.125H50H43.75C40.3125 3.125 37.5 5.9375 37.5 9.375V14.6875C36.25 15 35 15.625 34.0625 16.25L30 12.5C27.8125 10 23.75 10 21.25 12.5L12.5 21.25C11.25 22.5 10.625 24.0625 10.625 25.625C10.625 27.1875 11.25 28.75 12.5 30L16.25 33.75C15.625 35 15 36.25 14.6875 37.5H9.375C5.9375 37.5 3.125 40.3125 3.125 43.75V56.25C3.125 59.6875 5.9375 62.5 9.375 62.5H14.6875C15 63.75 15.625 65 16.25 65.9375L12.5 70C10 72.5 10 76.25 12.5 78.75L21.25 87.5C23.75 90 27.8125 90 30 87.5L33.75 83.75C35 84.375 35.9375 84.6875 37.1875 85.3125V90.625C37.1875 94.0625 40 96.875 43.4375 96.875H49.6875H55.9375C59.375 96.875 62.1875 94.0625 62.1875 90.625V85.3125C63.4375 85 64.6875 84.375 65.625 83.75L69.375 87.5C71.875 90 75.9375 90 78.125 87.5L86.875 78.75C89.375 76.25 89.375 72.5 86.875 70L83.125 66.25C83.75 65 84.0625 64.0625 84.6875 62.8125H90.625C94.0625 62.8125 96.875 60 96.875 56.5625V44.0625C96.875 40.3125 94.0625 37.5 90.625 37.5ZM50 68.75C39.6875 68.75 31.25 60.3125 31.25 50C31.25 39.6875 39.6875 31.25 50 31.25C60.3125 31.25 68.75 39.6875 68.75 50C68.75 60.3125 60.3125 68.75 50 68.75Z" fill="#F7B9D7"/>
</svg>
