<svg class="max-w-full max-h-full" viewBox="0 0 33 33" fill="none" xmlns="http://www.w3.org/2000/svg">
<path fill-rule="evenodd" clip-rule="evenodd" d="M13.2705 4.82323C12.7342 4.18669 11.8987 3.72337 11.1304 4.04364C10.3789 4.35693 10.1237 5.24083 10.1756 6.05338C10.1813 6.14249 10.1842 6.23237 10.1842 6.32292C10.1842 8.63457 8.29912 10.5085 5.97371 10.5085C5.87405 10.5085 5.7752 10.5051 5.67728 10.4983C4.8731 10.4427 3.99938 10.6958 3.68541 11.4382C3.36057 12.2064 3.82536 13.0437 4.46613 13.5776C5.38769 14.3454 5.97367 15.4981 5.97367 16.787C5.97367 18.0758 5.38767 19.2286 4.46609 19.9964C3.82533 20.5302 3.36054 21.3676 3.68537 22.1357C3.99934 22.8782 4.87306 23.1312 5.67723 23.0756C5.77517 23.0688 5.87404 23.0654 5.97371 23.0654C8.29912 23.0654 10.1842 24.9393 10.1842 27.251C10.1842 27.3416 10.1813 27.4315 10.1756 27.5206C10.1237 28.3331 10.3789 29.2171 11.1304 29.5304C11.8987 29.8506 12.7342 29.3873 13.2705 28.7508C14.0429 27.834 15.2029 27.251 16.5 27.251C17.7013 27.251 18.7852 27.7512 19.5523 28.5534C20.2304 29.2626 21.2084 29.8232 22.1069 29.4288C22.1272 29.4199 22.1475 29.4109 22.1678 29.4019C22.9591 29.05 23.2368 28.117 23.2368 27.251C23.2368 24.9393 25.1219 23.0654 27.4473 23.0654C28.2248 23.0654 29.0468 22.7799 29.3454 22.0621C29.3588 22.03 29.372 21.9979 29.3851 21.9657C29.7048 21.1803 29.2663 20.334 28.6675 19.7336C27.9133 18.9772 27.4474 17.9362 27.4474 16.787C27.4474 15.6378 27.9133 14.5968 28.6675 13.8404C29.2663 13.2399 29.7048 12.3936 29.385 11.6082C29.3719 11.576 29.3587 11.5438 29.3454 11.5118C29.0468 10.794 28.2248 10.5085 27.4473 10.5085C25.1219 10.5085 23.2368 8.63457 23.2368 6.32292C23.2368 5.45693 22.9591 4.52401 22.1678 4.17214C22.1475 4.16312 22.1272 4.15415 22.1069 4.14522C21.2084 3.75085 20.2304 4.31136 19.5523 5.02055C18.7851 5.82281 17.7013 6.32296 16.5 6.32296C15.2029 6.32296 14.0429 5.73998 13.2705 4.82323ZM16.7105 25.1582C21.2451 25.1582 24.9211 21.504 24.9211 16.9963C24.9211 12.4885 21.2451 8.83432 16.7105 8.83432C12.176 8.83432 8.5 12.4885 8.5 16.9963C8.5 21.504 12.176 25.1582 16.7105 25.1582Z" fill="#F7B9D7"/>
<ellipse cx="28.2895" cy="5.48585" rx="1.26316" ry="1.25568" fill="#F7B9D7"/>
<ellipse cx="16.5" cy="2.13734" rx="1.26316" ry="1.25568" fill="#F7B9D7"/>
<ellipse cx="28.2895" cy="28.0881" rx="1.26316" ry="1.25568" fill="#F7B9D7"/>
<ellipse cx="5.13157" cy="28.0881" rx="1.26316" ry="1.25568" fill="#F7B9D7"/>
<ellipse cx="5.13157" cy="5.48585" rx="1.26316" ry="1.25568" fill="#F7B9D7"/>
<ellipse cx="1.76316" cy="16.7869" rx="1.26316" ry="1.25568" fill="#F7B9D7"/>
<ellipse cx="31.2369" cy="16.7869" rx="1.26316" ry="1.25568" fill="#F7B9D7"/>
<ellipse cx="16.5" cy="31.4367" rx="1.26316" ry="1.25568" fill="#F7B9D7"/>
<path d="M16.5 9.82843C13.9 9.82843 8.3 12.6119 9.9 19.5704" stroke="#F7B9D7" stroke-linecap="round"/>
</svg>
